<svg width="40" height="40" viewBox="0 0 40 40" fill="none" xmlns="http://www.w3.org/2000/svg">
  <path d="M20 5C11.729 5 5 11.729 5 20C5 28.271 11.729 35 20 35C28.271 35 35 28.271 35 20C35 11.729 28.271 5 20 5ZM20 10C22.761 10 25 12.239 25 15C25 17.761 22.761 20 20 20C17.239 20 15 17.761 15 15C15 12.239 17.239 10 20 10ZM20 30C16.25 30 12.953 28.469 10.625 25.938C10.688 22.969 16.25 21.25 20 21.25C23.75 21.25 29.312 22.969 29.375 25.938C27.047 28.469 23.75 30 20 30Z" fill="currentColor"/>
</svg>
